<?xml version="1.0" encoding="utf-8"?>
<!-- Generator: Adobe Illustrator 24.0.3, SVG Export Plug-In . SVG Version: 6.00 Build 0)  -->
<svg version="1.1" id="Layer_1" xmlns="http://www.w3.org/2000/svg" xmlns:xlink="http://www.w3.org/1999/xlink" x="0px" y="0px"
	 viewBox="0 0 512 512" style="enable-background:new 0 0 512 512;" xml:space="preserve">
<style type="text/css">
	.st0{fill:#FFFFFF;}
	.st1{fill:none;}
</style>
<path class="st0" d="M512,459.6V52.4C512,23.5,488.5,0,459.6,0H52.4C23.5,0,0,23.5,0,52.4v407.3C0,488.5,23.5,512,52.4,512h407.3
	C488.5,512,512,488.5,512,459.6z M15,52.4C15,31.8,31.8,15,52.4,15h407.3c20.6,0,37.4,16.8,37.4,37.4v62.3H15V52.4z M447,192.2V447
	h-67.5c33.5-19.4,56.1-55.6,56.1-97.1c0-61.8-50.3-112.1-112.1-112.1c-25.6,0-50.3,8.8-70.1,24.6v-34.7c0-11.7-9.6-21.3-21.3-21.3
	H119.3c-11.7,0-21.3,9.6-21.3,21.3v49.5c0,12.5,3,24.9,8.8,35.9c1.9,3.7,6.4,5.1,10.1,3.2c3.7-1.9,5.1-6.4,3.2-10.1
	c-4.7-9-7.1-18.8-7.1-28.9v-49.5c0-3.5,2.8-6.3,6.3-6.3h112.9c3.5,0,6.3,2.8,6.3,6.3v49.5c0,35.2-31.2,64.3-66.1,62.7
	c0,0-0.1,0-0.1,0c-12.8-0.8-25.1-5.3-35.2-13.3c-3.3-2.6-8-2-10.5,1.3c-2.6,3.3-2,8,1.3,10.5c7.6,6,16.1,10.4,25.2,13.2v57.2
	c-3.2,1.5-7.4,3.8-11.6,7.4c-6.7,5.7-14.3,15.4-16,30.8H65V192.2c0,0,20.7-10.4,20.7-10.4c13.3-6.7,29.5-6.7,42.9,0
	c17.4,8.8,38.8,8.9,56.4,0c13.3-6.7,29.5-6.7,42.9,0c17.6,8.9,38.8,8.9,56.4,0c13.2-6.7,29.5-6.8,42.9,0c17.4,8.8,38.8,8.9,56.4,0
	c13.4-6.7,29.5-6.7,42.9,0L447,192.2z M175.8,355c2.6,0,5.2-0.1,7.8-0.4v51.9H168v-51.9c0,0,0,0,0.1,0
	C169.2,354.7,174.3,355,175.8,355z M161.6,421.5h28.2c3.7,1.3,18.3,7.5,21.2,25.5h-70.5C143.3,429,157.9,422.8,161.6,421.5z
	 M226.1,447c-2.4-21.4-16.7-33.3-27.6-38.2v-57.2c4.6-1.4,8.9-3.2,13.1-5.4c0,1.2-0.1,2.5-0.1,3.7c0,41.4,22.6,77.7,56.1,97.1H226.1
	z M240.6,320c7.2-10.9,11.6-23.7,12.6-36.8c0-0.1,0-0.2,0-0.3c18.3-19.2,43.8-30.2,70.3-30.2c53.5,0,97.1,43.6,97.1,97.1
	c0,53.5-43.6,97.1-97.1,97.1c-53.5,0-97.1-43.5-97.1-97.1c0-4.9,0.4-9.9,1.1-14.8C232.6,330.7,237,325.6,240.6,320z M447,175.4
	l-13.9-7c-17.5-8.8-38.8-8.9-56.4,0c-13.4,6.7-29.5,6.7-42.9,0c-17.6-8.9-38.8-8.9-56.4,0c-13.2,6.6-29.5,6.7-42.9,0
	c-17.5-8.9-38.9-8.9-56.4,0c-13.4,6.8-29.5,6.7-42.9,0c-17.4-8.8-38.8-8.9-56.4,0l-13.9,7v-45.7h382V175.4z M15,459.6V129.7h35
	v324.8c0,4.1,3.4,7.5,7.5,7.5h397c4.1,0,7.5-3.4,7.5-7.5V129.7h35v329.9c0,20.6-16.8,37.4-37.4,37.4H52.4
	C31.8,497,15,480.2,15,459.6z"/>
<path class="st0" d="M278.7,96.7h164.1c10.6,0,19.2-8.6,19.2-19.2V52.2c0-10.6-8.6-19.2-19.2-19.2H278.7c-10.6,0-19.2,8.6-19.2,19.2
	v25.3C259.5,88.1,268.1,96.7,278.7,96.7z M274.5,52.2c0-2.3,1.9-4.2,4.2-4.2h164.1c2.3,0,4.2,1.9,4.2,4.2v25.3
	c0,2.3-1.9,4.2-4.2,4.2H278.7c-2.3,0-4.2-1.9-4.2-4.2V52.2z"/>
<path class="st0" d="M105.3,94.7c16.5,0,29.9-13.4,29.9-29.9c0-16.5-13.4-29.9-29.9-29.9c-16.5,0-29.9,13.4-29.9,29.9
	C75.4,81.3,88.8,94.7,105.3,94.7z M105.3,50c8.2,0,14.9,6.7,14.9,14.9c0,8.2-6.7,14.9-14.9,14.9S90.4,73,90.4,64.9
	C90.4,56.7,97.1,50,105.3,50z"/>
<path class="st1" d="M182.2,94.7c16.5,0,29.9-13.4,29.9-29.9c0-16.5-13.4-29.9-29.9-29.9c-16.5,0-29.9,13.4-29.9,29.9
	C152.3,81.3,165.7,94.7,182.2,94.7z M182.2,50c8.2,0,14.9,6.7,14.9,14.9c0,8.2-6.7,14.9-14.9,14.9s-14.9-6.7-14.9-14.9
	C167.3,56.7,174,50,182.2,50z"/>
<path class="st0" d="M323.6,427c42.5,0,77.1-34.6,77.1-77.1c0-16.1-5-31.5-14.3-44.7c-2.4-3.4-7.1-4.2-10.5-1.7
	c-3.4,2.4-4.2,7.1-1.7,10.5c7.5,10.6,11.5,23,11.5,36c0,34.2-27.8,62.1-62.1,62.1s-62.1-27.8-62.1-62.1c0-34.2,27.8-62.1,62.1-62.1
	c10.9,0,21.7,2.9,31.2,8.4c3.6,2.1,8.2,0.9,10.3-2.7c2.1-3.6,0.9-8.2-2.7-10.3c-11.8-6.9-25.2-10.5-38.8-10.5
	c-42.5,0-77.1,34.6-77.1,77.1S281.1,427,323.6,427z"/>
</svg>
