<?xml version="1.0" encoding="utf-8"?>
<!-- Generator: Adobe Illustrator 24.0.3, SVG Export Plug-In . SVG Version: 6.00 Build 0)  -->
<svg version="1.1" id="Capa_1" xmlns="http://www.w3.org/2000/svg" xmlns:xlink="http://www.w3.org/1999/xlink" x="0px" y="0px"
	 viewBox="0 0 512 512" style="enable-background:new 0 0 512 512;" xml:space="preserve">
<style type="text/css">
	.st0{fill:#FFFFFF;}
</style>
<g>
	<g>
		<path class="st0" d="M435.2,0H76.8C62.7,0,51.2,11.5,51.2,25.6v460.8c0,14.1,11.5,25.6,25.6,25.6h358.4
			c14.1,0,25.6-11.5,25.6-25.6V25.6C460.8,11.5,449.3,0,435.2,0z M443.7,486.4c0,4.7-3.8,8.5-8.5,8.5H76.8c-4.7,0-8.5-3.8-8.5-8.5
			V25.6c0-4.7,3.8-8.5,8.5-8.5h358.4c4.7,0,8.5,3.8,8.5,8.5V486.4z"/>
	</g>
</g>
<g>
	<g>
		<path class="st0" d="M452.3,34.1H59.7c-4.7,0-8.5,3.8-8.5,8.5s3.8,8.5,8.5,8.5h392.5c4.7,0,8.5-3.8,8.5-8.5S457,34.1,452.3,34.1z"
			/>
	</g>
</g>
<g>
	<g>
		<path class="st0" d="M452.3,153.6H59.7c-4.7,0-8.5,3.8-8.5,8.5s3.8,8.5,8.5,8.5h392.5c4.7,0,8.5-3.8,8.5-8.5
			S457,153.6,452.3,153.6z"/>
	</g>
</g>
<g>
	<g>
		<path class="st0" d="M256,187.7c-70.7,0-128,57.3-128,128s57.3,128,128,128s128-57.3,128-128S326.7,187.7,256,187.7z M256,426.7
			c-61.3,0-110.9-49.7-110.9-110.9S194.7,204.8,256,204.8s110.9,49.7,110.9,110.9S317.3,426.7,256,426.7z"/>
	</g>
</g>
<g>
	<g>
		<path class="st0" d="M256,221.9c-51.8,0-93.9,42-93.9,93.9s42,93.9,93.9,93.9s93.9-42,93.9-93.9S307.8,221.9,256,221.9z
			 M256,392.5c-42.4,0-76.8-34.4-76.8-76.8s34.4-76.8,76.8-76.8s76.8,34.4,76.8,76.8S298.4,392.5,256,392.5z"/>
	</g>
</g>
<g>
	<g>
		<path class="st0" d="M128,460.8H93.9c-4.7,0-8.5,3.8-8.5,8.5c0,4.7,3.8,8.5,8.5,8.5H128c4.7,0,8.5-3.8,8.5-8.5
			S132.7,460.8,128,460.8z"/>
	</g>
</g>
<g>
	<g>
		<path class="st0" d="M204.8,460.8h-42.7c-4.7,0-8.5,3.8-8.5,8.5c0,4.7,3.8,8.5,8.5,8.5h42.7c4.7,0,8.5-3.8,8.5-8.5
			C213.3,464.6,209.5,460.8,204.8,460.8z"/>
	</g>
</g>
<g>
	<g>
		<path class="st0" d="M281.6,460.8h-42.7c-4.7,0-8.5,3.8-8.5,8.5c0,4.7,3.8,8.5,8.5,8.5h42.7c4.7,0,8.5-3.8,8.5-8.5
			S286.3,460.8,281.6,460.8z"/>
	</g>
</g>
<g>
	<g>
		<path class="st0" d="M349.9,460.8h-34.1c-4.7,0-8.5,3.8-8.5,8.5c0,4.7,3.8,8.5,8.5,8.5h34.1c4.7,0,8.5-3.8,8.5-8.5
			S354.6,460.8,349.9,460.8z"/>
	</g>
</g>
<g>
	<g>
		<path class="st0" d="M418.1,460.8H384c-4.7,0-8.5,3.8-8.5,8.5c0,4.7,3.8,8.5,8.5,8.5h34.1c4.7,0,8.5-3.8,8.5-8.5
			S422.8,460.8,418.1,460.8z"/>
	</g>
</g>
<g>
	<g>
		<path class="st0" d="M392.5,68.3c-18.9,0-34.1,15.3-34.1,34.1s15.3,34.1,34.1,34.1s34.1-15.3,34.1-34.1S411.4,68.3,392.5,68.3z
			 M392.5,119.5c-9.4,0-17.1-7.6-17.1-17.1s7.6-17.1,17.1-17.1s17.1,7.6,17.1,17.1C409.6,111.8,402,119.5,392.5,119.5z"/>
	</g>
</g>
<g>
	<g>
		<path class="st0" d="M238.9,85.3c-4.7,0-8.5,3.8-8.5,8.5v17.1c0,4.7,3.8,8.5,8.5,8.5s8.5-3.8,8.5-8.5V93.9
			C247.5,89.2,243.6,85.3,238.9,85.3z"/>
	</g>
</g>
<g>
	<g>
		<path class="st0" d="M273.1,85.3c-4.7,0-8.5,3.8-8.5,8.5v17.1c0,4.7,3.8,8.5,8.5,8.5c4.7,0,8.5-3.8,8.5-8.5V93.9
			C281.6,89.2,277.8,85.3,273.1,85.3z"/>
	</g>
</g>
</svg>
