<?xml version="1.0" encoding="utf-8"?>
<!-- Generator: Adobe Illustrator 24.0.3, SVG Export Plug-In . SVG Version: 6.00 Build 0)  -->
<svg version="1.1" id="Layer_1" xmlns="http://www.w3.org/2000/svg" xmlns:xlink="http://www.w3.org/1999/xlink" x="0px" y="0px"
	 viewBox="0 0 511.8 511.8" style="enable-background:new 0 0 511.8 511.8;" xml:space="preserve">
<style type="text/css">
	.st0{fill:#FFFFFF;}
</style>
<g>
	<g>
		<path class="st0" d="M287.8,205.4c-4.3-4.4-8.3-9.2-11.9-14.3c-1.3-1.7-2.4-3.4-3.4-5.1c-10.8-17.5-16.5-37.6-16.5-58.1
			c0-6.1,0.5-12.2,1.5-18.3c2.3-14.1,7.3-27.6,14.8-39.8c1.3-2,2.6-4,3.9-6c2.6-3.6,1.9-8.6-1.5-11.4c-7.7-6.4-17.3-9.9-27.3-9.9
			H59.8c-23.6,0-42.7,19.1-42.7,42.7V435c0,23.6,19.1,42.7,42.7,42.7h187.7c23.6,0,42.7-19.1,42.7-42.7V211.3
			C290.2,209.1,289.3,207,287.8,205.4z M273.1,435c0,14.1-11.5,25.6-25.6,25.6H59.8c-14.1,0-25.6-11.5-25.6-25.6V85.2
			c0-14.1,11.5-25.6,25.6-25.6h187.7c3.5,0,7,0.7,10.2,2c-8.5,13.9-14.3,29.2-17.1,45.2c-1.2,6.9-1.7,14-1.7,21
			c0,23.8,6.6,47,19.1,67.2c1.3,2,2.6,4.1,3.9,5.9c3.4,4.9,7.1,9.5,11.1,13.8L273.1,435L273.1,435z"/>
	</g>
</g>
<g>
	<g>
		<path class="st0" d="M102.4,460.6H59.8c-4.7,0-8.5,3.8-8.5,8.5v17.1c0,14.1,11.5,25.6,25.6,25.6h8.5c14.1,0,25.6-11.5,25.6-25.6
			v-17.1C111,464.5,107.2,460.6,102.4,460.6z M93.9,486.2c0,4.7-3.8,8.5-8.5,8.5h-8.5c-4.7,0-8.5-3.8-8.5-8.5v-8.5h25.6L93.9,486.2
			L93.9,486.2z"/>
	</g>
</g>
<g>
	<g>
		<path class="st0" d="M247.5,460.6h-42.7c-4.7,0-8.5,3.8-8.5,8.5v17.1c0,14.1,11.5,25.6,25.6,25.6h8.5c14.1,0,25.6-11.5,25.6-25.6
			v-17.1C256,464.5,252.2,460.6,247.5,460.6z M239,486.2c0,4.7-3.8,8.5-8.5,8.5h-8.5c-4.7,0-8.5-3.8-8.5-8.5v-8.5H239L239,486.2
			L239,486.2z"/>
	</g>
</g>
<g>
	<g>
		<path class="st0" d="M269,187.6H25.6c-4.7,0-8.5,3.8-8.5,8.5s3.8,8.5,8.5,8.5H269c4.7,0,8.5-3.8,8.5-8.5S273.7,187.6,269,187.6z"
			/>
	</g>
</g>
<g>
	<g>
		<path class="st0" d="M59.8,221.7c-4.7,0-8.5,3.8-8.5,8.5v51.2c0,4.7,3.8,8.5,8.5,8.5s8.5-3.8,8.5-8.5v-51.2
			C68.3,225.5,64.5,221.7,59.8,221.7z"/>
	</g>
</g>
<g>
	<g>
		<path class="st0" d="M59.8,102.2c-4.7,0-8.5,3.8-8.5,8.5V162c0,4.7,3.8,8.5,8.5,8.5s8.5-3.8,8.5-8.5v-51.2
			C68.3,106.1,64.5,102.2,59.8,102.2z"/>
	</g>
</g>
<g>
	<g>
		<path class="st0" d="M440.7,23.6C383-17.3,303.1-3.7,262.3,54c-1.5,2.2-3,4.4-4.5,6.8c-8.6,14.1-14.4,29.7-17.1,46
			c-1.2,6.9-1.7,14-1.7,21c0,23.8,6.5,47,19,67.2c1.3,2,2.6,4.1,3.9,5.9c4.1,5.8,8.6,11.3,13.6,16.4c3.9,4,8,7.7,12.4,11.1
			c22.5,17.8,50.4,27.5,79.1,27.4c28.7,0.1,56.6-9.6,79.1-27.4c9.6-7.6,18-16.5,25.1-26.4C512,144.3,498.4,64.4,440.7,23.6z
			 M454.4,195.8C416.7,244.1,347,252.7,298.7,215c-3.9-2.9-7.5-6.1-10.9-9.6c-4.3-4.4-8.3-9.2-11.9-14.3c-1.3-1.7-2.4-3.4-3.4-5.1
			c-10.8-17.5-16.5-37.6-16.5-58.1c0-6.1,0.6-12.2,1.6-18.2c2.3-14.1,7.3-27.6,14.8-39.8c1.3-2,2.6-4,3.9-6
			c20.8-29.5,54.6-47,90.6-47c61.3,0,110.9,49.7,110.9,110.9C477.8,152.5,469.6,176.4,454.4,195.8z"/>
	</g>
</g>
<g>
	<g>
		<path class="st0" d="M367,34c-4.7,0-8.5,3.8-8.5,8.5v170.7c0,4.7,3.8,8.5,8.5,8.5s8.5-3.8,8.5-8.5V42.5
			C375.5,37.8,371.7,34,367,34z"/>
	</g>
</g>
<g>
	<g>
		<path class="st0" d="M371.8,61l-25.6-17.1c-3.7-2.2-8.5-1.3-11.2,2.2c-2.8,3.8-2.1,9.1,1.7,11.9l25.6,17.1c1.4,0.9,3,1.4,4.7,1.5
			c2.8,0,5.5-1.4,7.1-3.8C376.7,68.9,375.7,63.6,371.8,61z"/>
	</g>
</g>
<g>
	<g>
		<path class="st0" d="M399.5,47c-2.4-4.1-7.6-5.4-11.7-3L362.2,61c-2.4,1.6-3.8,4.3-3.8,7.1c0,4.7,3.8,8.5,8.6,8.5
			c1.7,0,3.3-0.5,4.7-1.5l25.6-17.1C400.7,55.5,401.7,50.7,399.5,47z"/>
	</g>
</g>
<g>
	<g>
		<path class="st0" d="M374.1,182.2c-2.8-3.8-8.2-4.5-11.9-1.7l-25.6,17.1c-2.4,1.6-3.8,4.3-3.8,7.1c0,4.7,3.8,8.5,8.6,8.5
			c1.7,0,3.3-0.5,4.7-1.5l25.6-17.1c0.3-0.2,0.5-0.3,0.8-0.5C376.2,191.3,377,185.9,374.1,182.2z"/>
	</g>
</g>
<g>
	<g>
		<path class="st0" d="M397.4,197.5l-25.6-17.1c-3.7-2.2-8.5-1.3-11.2,2.2c-2.8,3.8-2.1,9.1,1.7,11.9l25.6,17.1
			c1.4,0.9,3,1.4,4.7,1.5c2.8,0,5.5-1.4,7.1-3.8C402.3,205.5,401.3,200.2,397.4,197.5z"/>
	</g>
</g>
<g>
	<g>
		<path class="st0" d="M452.3,119.3H281.6c-4.7,0-8.5,3.8-8.5,8.5s3.8,8.5,8.5,8.5h170.7c4.7,0,8.5-3.8,8.5-8.5
			S457,119.3,452.3,119.3z"/>
	</g>
</g>
<g>
	<g>
		<path class="st0" d="M312.1,121.4c-3.8-2.8-9.1-2.1-11.9,1.7l-17.1,25.6c-0.9,1.4-1.4,3-1.4,4.6c0,4.7,3.8,8.6,8.5,8.6
			c2.8,0,5.5-1.4,7.1-3.8l17.1-25.6C316.5,128.9,315.6,124.1,312.1,121.4z"/>
	</g>
</g>
<g>
	<g>
		<path class="st0" d="M314.3,123.1l-17.1-25.6c-2.6-3.5-7.4-4.4-11.2-2.2c-4.1,2.4-5.4,7.6-3,11.7l17.1,25.6
			c1.6,2.4,4.2,3.8,7.1,3.8c1.7,0,3.4-0.5,4.8-1.5C315.9,132.3,317,127,314.3,123.1z"/>
	</g>
</g>
<g>
	<g>
		<path class="st0" d="M450.9,148.7l-17.1-25.6c-2.6-3.5-7.4-4.4-11.2-2.2c-4.1,2.4-5.4,7.6-3,11.7l17.1,25.6
			c1.6,2.4,4.2,3.8,7.1,3.8c1.7,0,3.4-0.5,4.8-1.5C452.5,157.9,453.5,152.6,450.9,148.7z"/>
	</g>
</g>
<g>
	<g>
		<path class="st0" d="M448.6,95.8c-3.8-2.8-9.1-2.1-11.9,1.7l-17.1,25.6c-0.9,1.4-1.4,3-1.4,4.6c0,4.7,3.8,8.6,8.5,8.6
			c2.8,0,5.5-1.4,7.1-3.8l17.1-25.6C453.1,103.3,452.1,98.5,448.6,95.8z"/>
	</g>
</g>
<g>
	<g>
		<path class="st0" d="M415.6,164.5l-85.3-85.3c-3.2-2.7-7.9-2.7-11.1,0c-3.6,3.1-4,8.5-0.9,12l85.3,85.3c1.6,1.6,3.8,2.5,6.1,2.5
			c2.2,0,4.3-0.9,5.9-2.4C418.9,173.3,418.9,167.9,415.6,164.5z"/>
	</g>
</g>
<g>
	<g>
		<path class="st0" d="M415.6,80c-3.1-3.6-8.5-4-12-0.9l-85.3,85.3c-1.6,1.6-2.5,3.8-2.5,6.1c0,4.7,3.9,8.5,8.6,8.5
			c2.3,0,4.4-1,6-2.6l85.3-85.3C418.3,87.9,418.3,83.2,415.6,80z"/>
	</g>
</g>
</svg>
