<?xml version="1.0" encoding="utf-8"?>
<!-- Generator: Adobe Illustrator 24.0.3, SVG Export Plug-In . SVG Version: 6.00 Build 0)  -->
<svg version="1.1" id="Capa_1" xmlns="http://www.w3.org/2000/svg" xmlns:xlink="http://www.w3.org/1999/xlink" x="0px" y="0px"
	 viewBox="0 0 512 512" style="enable-background:new 0 0 512 512;" xml:space="preserve">
<style type="text/css">
	.st0{fill:#FFFFFF;}
</style>
<g>
	<g>
		<path class="st0" d="M204.8,460.8h-42.7c-4.7,0-8.5,3.8-8.5,8.5v17.1c0,14.1,11.5,25.6,25.6,25.6h8.5c14.1,0,25.6-11.5,25.6-25.6
			v-17.1C213.3,464.6,209.5,460.8,204.8,460.8z M196.3,486.4c0,4.7-3.8,8.5-8.5,8.5h-8.5c-4.7,0-8.5-3.8-8.5-8.5v-8.5h25.6V486.4z"
			/>
	</g>
</g>
<g>
	<g>
		<path class="st0" d="M349.9,460.8h-42.7c-4.7,0-8.5,3.8-8.5,8.5v17.1c0,14.1,11.5,25.6,25.6,25.6h8.5c14.1,0,25.6-11.5,25.6-25.6
			v-17.1C358.4,464.6,354.6,460.8,349.9,460.8z M341.3,486.4L341.3,486.4c0,4.7-3.8,8.5-8.5,8.5h-8.5c-4.7,0-8.5-3.8-8.5-8.5v-8.5
			h25.6L341.3,486.4L341.3,486.4z"/>
	</g>
</g>
<g>
	<g>
		<path class="st0" d="M384,170.7H128c-4.7,0-8.5,3.8-8.5,8.5s3.8,8.5,8.5,8.5h256c4.7,0,8.5-3.8,8.5-8.5S388.7,170.7,384,170.7z"/>
	</g>
</g>
<g>
	<g>
		<path class="st0" d="M162.1,204.8c-4.7,0-8.5,3.8-8.5,8.5v51.2c0,4.7,3.8,8.5,8.5,8.5s8.5-3.8,8.5-8.5v-51.2
			C170.7,208.6,166.8,204.8,162.1,204.8z"/>
	</g>
</g>
<g>
	<g>
		<path class="st0" d="M162.1,85.3c-4.7,0-8.5,3.8-8.5,8.5v51.2c0,4.7,3.8,8.5,8.5,8.5s8.5-3.8,8.5-8.5V93.9
			C170.7,89.2,166.8,85.3,162.1,85.3z"/>
	</g>
</g>
<g>
	<g>
		<path class="st0" d="M358.4,0H153.6c-18.9,0-34.1,15.3-34.1,34.1v409.6c0,18.9,15.3,34.1,34.1,34.1h204.8
			c18.9,0,34.1-15.3,34.1-34.1V34.1C392.5,15.3,377.3,0,358.4,0z M375.5,443.7c0,9.4-7.6,17.1-17.1,17.1H153.6
			c-9.4,0-17.1-7.6-17.1-17.1V34.1c0-9.4,7.6-17.1,17.1-17.1h204.8c9.4,0,17.1,7.6,17.1,17.1V443.7z"/>
	</g>
</g>
<g>
	<g>
		<path class="st0" d="M170.7,409.6c-4.7,0-8.5,3.8-8.5,8.5v17.1c0,4.7,3.8,8.5,8.5,8.5s8.5-3.8,8.5-8.5v-17.1
			C179.2,413.4,175.4,409.6,170.7,409.6z"/>
	</g>
</g>
<g>
	<g>
		<path class="st0" d="M204.8,409.6c-4.7,0-8.5,3.8-8.5,8.5v17.1c0,4.7,3.8,8.5,8.5,8.5s8.5-3.8,8.5-8.5v-17.1
			C213.3,413.4,209.5,409.6,204.8,409.6z"/>
	</g>
</g>
<g>
	<g>
		<path class="st0" d="M238.9,409.6c-4.7,0-8.5,3.8-8.5,8.5v17.1c0,4.7,3.8,8.5,8.5,8.5s8.5-3.8,8.5-8.5v-17.1
			C247.5,413.4,243.6,409.6,238.9,409.6z"/>
	</g>
</g>
<g>
	<g>
		<path class="st0" d="M273.1,409.6c-4.7,0-8.5,3.8-8.5,8.5v17.1c0,4.7,3.8,8.5,8.5,8.5c4.7,0,8.5-3.8,8.5-8.5v-17.1
			C281.6,413.4,277.8,409.6,273.1,409.6z"/>
	</g>
</g>
<g>
	<g>
		<path class="st0" d="M307.2,409.6c-4.7,0-8.5,3.8-8.5,8.5v17.1c0,4.7,3.8,8.5,8.5,8.5c4.7,0,8.5-3.8,8.5-8.5v-17.1
			C315.7,413.4,311.9,409.6,307.2,409.6z"/>
	</g>
</g>
<g>
	<g>
		<path class="st0" d="M341.3,409.6c-4.7,0-8.5,3.8-8.5,8.5v17.1c0,4.7,3.8,8.5,8.5,8.5s8.5-3.8,8.5-8.5v-17.1
			C349.9,413.4,346,409.6,341.3,409.6z"/>
	</g>
</g>
</svg>
