<?xml version="1.0" encoding="utf-8"?>
<!-- Generator: Adobe Illustrator 24.0.3, SVG Export Plug-In . SVG Version: 6.00 Build 0)  -->
<svg version="1.1" id="Layer_1" xmlns="http://www.w3.org/2000/svg" xmlns:xlink="http://www.w3.org/1999/xlink" x="0px" y="0px"
	 viewBox="0 0 512 512" style="enable-background:new 0 0 512 512;" xml:space="preserve">
<style type="text/css">
	.st0{fill:#FFFFFF;}
</style>
<path class="st0" d="M512,56.2c0-12.8-10.4-23.2-23.2-23.2h-50v-15c0-9.9-8-17.9-17.9-17.9H317.8c-9.9,0-17.9,8-17.9,17.9v15h-87.8
	v-15c0-9.9-8-17.9-17.9-17.9H91.1c-9.9,0-17.9,8-17.9,17.9v15h-50C10.4,33,0,43.4,0,56.2v49.5c0,6.1,2.3,11.6,6.1,15.7
	C2.3,125.5,0,131,0,137.1v305.8c0,12.8,10.4,23.2,23.2,23.2h2.4v22.5c0,12.8,10.4,23.2,23.2,23.2h232.6c4.1,0,7.5-3.4,7.5-7.5
	c0-4.1-3.4-7.5-7.5-7.5H48.8c-4.5,0-8.2-3.7-8.2-8.2v-22.5h430.8v22.5c0,4.5-3.7,8.2-8.2,8.2H316.1c-4.1,0-7.5,3.4-7.5,7.5
	c0,4.1,3.4,7.5,7.5,7.5h147.1c12.8,0,23.2-10.4,23.2-23.2v-22.5h2.4c12.8,0,23.2-10.4,23.2-23.2V137.1c0-6.1-2.3-11.6-6.1-15.7
	c3.8-4.1,6.1-9.6,6.1-15.7V56.2z M314.9,17.9c0-1.6,1.3-2.9,2.9-2.9h103.1c1.6,0,2.9,1.3,2.9,2.9v15H314.9V17.9z M88.2,17.9
	c0-1.6,1.3-2.9,2.9-2.9h103.1c1.6,0,2.9,1.3,2.9,2.9v15H88.2V17.9z M497,442.9c0,4.5-3.7,8.2-8.2,8.2H23.2c-4.5,0-8.2-3.7-8.2-8.2
	V137.1c0-4.5,3.7-8.2,8.2-8.2h465.6c4.5,0,8.2,3.7,8.2,8.2V442.9z M497,105.7c0,4.5-3.7,8.2-8.2,8.2H23.2c-4.5,0-8.2-3.7-8.2-8.2
	V56.2c0-4.5,3.7-8.2,8.2-8.2h465.6c4.5,0,8.2,3.7,8.2,8.2V105.7z"/>
<path class="st0" d="M106.1,55.2c-14.2,0-25.8,11.6-25.8,25.8c0,14.2,11.6,25.8,25.8,25.8c14.2,0,25.8-11.6,25.8-25.8
	C131.9,66.7,120.3,55.2,106.1,55.2z M106.1,91.7c-5.9,0-10.8-4.8-10.8-10.8s4.8-10.8,10.8-10.8s10.8,4.8,10.8,10.8
	S112,91.7,106.1,91.7z"/>
<path class="st0" d="M179.2,55.2c-14.2,0-25.8,11.6-25.8,25.8c0,14.2,11.6,25.8,25.8,25.8c14.2,0,25.8-11.6,25.8-25.8
	C204.9,66.7,193.4,55.2,179.2,55.2z M179.2,91.7c-5.9,0-10.8-4.8-10.8-10.8s4.8-10.8,10.8-10.8c5.9,0,10.8,4.8,10.8,10.8
	S185.1,91.7,179.2,91.7z"/>
<path class="st0" d="M332.8,55.2c-14.2,0-25.8,11.6-25.8,25.8c0,14.2,11.6,25.8,25.8,25.8c14.2,0,25.8-11.6,25.8-25.8
	C358.6,66.7,347,55.2,332.8,55.2z M332.8,91.7c-5.9,0-10.8-4.8-10.8-10.8s4.8-10.8,10.8-10.8c5.9,0,10.8,4.8,10.8,10.8
	S338.8,91.7,332.8,91.7z"/>
<path class="st0" d="M405.9,55.2c-14.2,0-25.8,11.6-25.8,25.8c0,14.2,11.6,25.8,25.8,25.8c14.2,0,25.8-11.6,25.8-25.8
	C431.7,66.7,420.1,55.2,405.9,55.2z M405.9,91.7c-5.9,0-10.8-4.8-10.8-10.8s4.8-10.8,10.8-10.8s10.8,4.8,10.8,10.8
	S411.8,91.7,405.9,91.7z"/>
<path class="st0" d="M434.7,171.9H216.6c-4.1,0-7.5,3.4-7.5,7.5c0,4.1,3.4,7.5,7.5,7.5h218.1c1.4,0,2.6,1.2,2.6,2.6v19.9
	c0,1.4-1.2,2.6-2.6,2.6H77.3c-1.4,0-2.6-1.2-2.6-2.6v-19.9c0-1.4,1.2-2.6,2.6-2.6h104.3c4.1,0,7.5-3.4,7.5-7.5
	c0-4.1-3.4-7.5-7.5-7.5H77.3c-9.7,0-17.6,7.9-17.6,17.6v19.9c0,9.7,7.9,17.6,17.6,17.6h10v166.5c0,14.3,11.6,25.9,25.9,25.9h285.6
	c14.3,0,25.9-11.6,25.9-25.9V227h10c9.7,0,17.6-7.9,17.6-17.6v-19.9C452.4,179.8,444.5,171.9,434.7,171.9z M409.7,393.5
	c0,6-4.9,10.9-10.9,10.9H113.2c-6,0-10.9-4.9-10.9-10.9V227h307.4V393.5z"/>
<path class="st0" d="M152.5,294.9c2,0,4-0.8,5.5-2.4l23-25c2.8-3.1,2.6-7.8-0.4-10.6s-7.8-2.6-10.6,0.4l-23,25
	c-2.8,3-2.6,7.8,0.4,10.6C148.9,294.2,150.7,294.9,152.5,294.9z"/>
<path class="st0" d="M154.2,324.1c1.4,1.3,3.3,2,5.1,2c2,0,4-0.8,5.5-2.4l47.3-51.4c2.8-3.1,2.6-7.8-0.4-10.6
	c-3.1-2.8-7.8-2.6-10.6,0.4l-47.3,51.4C150.9,316.6,151.1,321.3,154.2,324.1z"/>
</svg>
