<?xml version="1.0" encoding="utf-8"?>
<!-- Generator: Adobe Illustrator 24.0.3, SVG Export Plug-In . SVG Version: 6.00 Build 0)  -->
<svg version="1.1" id="Capa_1" xmlns="http://www.w3.org/2000/svg" xmlns:xlink="http://www.w3.org/1999/xlink" x="0px" y="0px"
	 viewBox="0 0 512 512" style="enable-background:new 0 0 512 512;" xml:space="preserve">
<style type="text/css">
	.st0{fill:#FFFFFF;}
</style>
<g>
	<g>
		<path class="st0" d="M205.5,36.1c-17.5,0-31.8,14.2-31.8,31.8c0,17.5,14.2,31.8,31.8,31.8s31.8-14.2,31.8-31.8
			C237.2,50.4,223,36.1,205.5,36.1z M205.5,84.6c-9.2,0-16.8-7.5-16.8-16.8s7.5-16.8,16.8-16.8s16.8,7.5,16.8,16.8
			S214.7,84.6,205.5,84.6z"/>
	</g>
</g>
<g>
	<g>
		<path class="st0" d="M119.6,36.1c-17.5,0-31.8,14.2-31.8,31.8c0,17.5,14.2,31.8,31.8,31.8s31.8-14.2,31.8-31.8
			C151.3,50.4,137.1,36.1,119.6,36.1z M119.6,84.6c-9.2,0-16.8-7.5-16.8-16.8s7.5-16.8,16.8-16.8s16.8,7.5,16.8,16.8
			S128.8,84.6,119.6,84.6z"/>
	</g>
</g>
<g>
	<g>
		<path class="st0" d="M394.9,36.1h-86.3c-9.4,0-17.1,7.7-17.1,17.1v29.3c0,9.4,7.7,17.1,17.1,17.1h86.3c9.4,0,17.1-7.7,17.1-17.1
			V53.2C412,43.8,404.4,36.1,394.9,36.1z M397,82.5c0,1.2-0.9,2.1-2.1,2.1h-86.3c-1.2,0-2.1-0.9-2.1-2.1V53.2c0-1.2,0.9-2.1,2.1-2.1
			h86.3c1.2,0,2.1,0.9,2.1,2.1V82.5z"/>
	</g>
</g>
<g>
	<g>
		<path class="st0" d="M256,153.6c-30.8,0-59.9,9.9-84.2,28.7c-3.3,2.5-3.9,7.2-1.4,10.5c2.5,3.3,7.2,3.9,10.5,1.4
			c21.7-16.7,47.6-25.6,75-25.6c67.7,0,122.9,55.1,122.9,122.9S323.7,414.3,256,414.3s-122.9-55.1-122.9-122.9
			c0-28.2,9.8-55.7,27.6-77.6c2.6-3.2,2.1-7.9-1.1-10.6s-7.9-2.1-10.6,1.1c-20,24.5-31,55.4-31,87c0,76,61.8,137.9,137.9,137.9
			s137.9-61.8,137.9-137.9S332,153.6,256,153.6z"/>
	</g>
</g>
<g>
	<g>
		<path class="st0" d="M474.3,453.8V57.6c0-31.8-25.9-57.6-57.6-57.6H95.4C63.6,0,37.7,25.9,37.7,57.6v396.7
			c0,31.8,25.9,57.6,57.6,57.6h321.3c31.5,0,57.2-25.4,57.6-56.8C474.3,454.9,474.3,454,474.3,453.8z M459.3,446.9h-62.1
			c-4.1,0-7.5,3.4-7.5,7.5s3.4,7.5,7.5,7.5h61.4c-3.6,19.9-21,35.1-42,35.1H95.4c-20.9,0-38.4-15.2-42-35.1h313.8
			c4.1,0,7.5-3.4,7.5-7.5s-3.4-7.5-7.5-7.5H52.7V135.8h406.5V446.9z M459.3,120.8H52.7V57.6C52.7,34.1,71.8,15,95.4,15h321.3
			c23.5,0,42.6,19.1,42.6,42.6V120.8z"/>
	</g>
</g>
<g>
	<g>
		<path class="st0" d="M256,188.5c-56.8,0-103,46.2-103,103c0,5,0.4,10,1.1,14.9c0,0,0,0,0,0c3.5,24.3,15.7,46.5,34.2,62.7
			c18.7,16.4,42.8,25.4,67.7,25.4s49-9,67.7-25.4c18.6-16.2,30.7-38.5,34.2-62.7c0,0,0,0,0,0c0.7-4.9,1.1-9.9,1.1-14.9
			C359,234.7,312.8,188.5,256,188.5z M313.8,357.8c-16,14-36.6,21.7-57.8,21.7s-41.8-7.7-57.8-21.7c-14.7-12.8-24.7-30.1-28.5-49.1
			l4.6-3.1c7.7-5.3,18.2-5.3,25.9,0c12.8,8.7,30,8.7,42.8,0c7.7-5.2,18.2-5.3,25.9,0c12.8,8.7,30,8.7,42.8,0
			c7.7-5.3,18.2-5.3,25.9,0l4.6,3.1C338.5,327.7,328.5,345,313.8,357.8z M344,291.9c-0.1,0-0.1-0.1-0.2-0.1c-4-2.3-8.4-3.8-13-4.7
			c-5.7-1-11.8-0.5-17.3,1.2c-3.6,1.1-7.1,2.8-10.2,4.9c-7.7,5.3-18.2,5.3-25.9,0c-6.3-4.3-13.7-6.6-21.4-6.6
			c-7.6,0-15.1,2.3-21.4,6.6c-7.7,5.3-18.2,5.3-25.9,0c-6.3-4.3-13.7-6.6-21.4-6.6c-6.6,0-13.4,1.8-19.1,5.2c-0.1,0-0.1,0.1-0.2,0.1
			c0-0.1,0-0.2,0-0.4c0-48.5,39.5-88,88-88s88,39.5,88,88C344,291.6,344,291.7,344,291.9z"/>
	</g>
</g>
</svg>
